name ./resultDataOpenSim/trcMotMarkerGrf/sub10/grf-13-01.mot
datacolumns 19
datarows 17
range 0.88800000 0.95200000
endheader

                time	     ground_force_vx	     ground_force_vy	     ground_force_vz	     ground_force_px	     ground_force_py	     ground_force_pz	   l_ground_force_vx	   l_ground_force_vy	   l_ground_force_vz	   l_ground_force_px	   l_ground_force_py	   l_ground_force_pz	     ground_torque_x	     ground_torque_y	     ground_torque_z	   l_ground_torque_x	   l_ground_torque_y	   l_ground_torque_z	
          0.88800000	          0.00000000	          0.00000000	          0.00000000	          0.00000000	          0.00000000	          0.00000000	         -5.61242365	        585.79684722	         55.55736750	         -0.01965028	         -0.04999700	         -0.10845947	          0.00000000	          0.00000000	          0.00000000	          0.00000000	         -5.15094647	          0.00000000	
          0.89200000	          0.00000000	          0.00000000	          0.00000000	          0.00000000	          0.00000000	          0.00000000	         -5.94848680	        576.45408265	         52.11442296	         -0.01619352	         -0.04999700	         -0.10789248	          0.00000000	          0.00000000	          0.00000000	          0.00000000	         -5.07277749	          0.00000000	
          0.89600000	          0.00000000	          0.00000000	          0.00000000	          0.00000000	          0.00000000	          0.00000000	         -6.17473543	        567.60491844	         48.26000946	         -0.01279857	         -0.04999700	         -0.10733416	          0.00000000	          0.00000000	          0.00000000	          0.00000000	         -5.01220320	          0.00000000	
          0.90000000	          0.00000000	          0.00000000	          0.00000000	          0.00000000	          0.00000000	          0.00000000	         -6.13168594	        559.29853714	         44.06627688	         -0.00942332	         -0.04999700	         -0.10679105	          0.00000000	          0.00000000	          0.00000000	          0.00000000	         -4.96940574	          0.00000000	
          0.90400000	          0.00000000	          0.00000000	          0.00000000	          0.00000000	          0.00000000	          0.00000000	         -5.70631445	        551.63245379	         39.63532608	         -0.00599725	         -0.04999700	         -0.10624088	          0.00000000	          0.00000000	          0.00000000	          0.00000000	         -4.94244150	          0.00000000	
          0.90800000	          0.00000000	          0.00000000	          0.00000000	          0.00000000	          0.00000000	          0.00000000	         -4.87020918	        544.72473269	         35.09597903	         -0.00248953	         -0.04999700	         -0.10565765	          0.00000000	          0.00000000	          0.00000000	          0.00000000	         -4.92793011	          0.00000000	
          0.91200000	          0.00000000	          0.00000000	          0.00000000	          0.00000000	          0.00000000	          0.00000000	         -3.65723038	        538.60022164	         30.60008907	          0.00109098	         -0.04999700	         -0.10505279	          0.00000000	          0.00000000	          0.00000000	          0.00000000	         -4.92146627	          0.00000000	
          0.91600000	          0.00000000	          0.00000000	          0.00000000	          0.00000000	          0.00000000	          0.00000000	         -2.12739950	        533.13282532	         26.30274012	          0.00474558	         -0.04999700	         -0.10445813	          0.00000000	          0.00000000	          0.00000000	          0.00000000	         -4.91784860	          0.00000000	
          0.92000000	          0.00000000	          0.00000000	          0.00000000	          0.00000000	          0.00000000	          0.00000000	         -0.35863498	        528.09310793	         22.34238903	          0.00849651	         -0.04999780	         -0.10388770	          0.00000000	          0.00000000	          0.00000000	          0.00000000	         -4.91129972	          0.00000000	
          0.92400000	          0.00000000	          0.00000000	          0.00000000	          0.00000000	          0.00000000	          0.00000000	          1.54385807	        523.25428158	         18.84108159	          0.01239833	         -0.04999800	         -0.10333226	          0.00000000	          0.00000000	          0.00000000	          0.00000000	         -4.89571067	          0.00000000	
          0.92800000	          0.00000000	          0.00000000	          0.00000000	          0.00000000	          0.00000000	          0.00000000	          3.45125758	        518.52616511	         15.90073086	          0.01651285	         -0.04999800	         -0.10276434	          0.00000000	          0.00000000	          0.00000000	          0.00000000	         -4.86488826	          0.00000000	
          0.93200000	          0.00000000	          0.00000000	          0.00000000	          0.00000000	          0.00000000	          0.00000000	          5.24801502	        514.06909187	         13.59048308	          0.02083821	         -0.04999800	         -0.10215604	          0.00000000	          0.00000000	          0.00000000	          0.00000000	         -4.81281477	          0.00000000	
          0.93600000	          0.00000000	          0.00000000	          0.00000000	          0.00000000	          0.00000000	          0.00000000	          6.89169979	        510.31484965	         11.96047994	          0.02527103	         -0.04999800	         -0.10150069	          0.00000000	          0.00000000	          0.00000000	          0.00000000	         -4.73400252	          0.00000000	
          0.94000000	          0.00000000	          0.00000000	          0.00000000	          0.00000000	          0.00000000	          0.00000000	          8.44462482	        507.86434166	         11.06527781	          0.02962613	         -0.04999800	         -0.10082015	          0.00000000	          0.00000000	          0.00000000	          0.00000000	         -4.62417990	          0.00000000	
          0.94400000	          0.00000000	          0.00000000	          0.00000000	          0.00000000	          0.00000000	          0.00000000	         10.05448355	        507.30770127	         10.95185110	          0.03371330	         -0.04999800	         -0.10015971	          0.00000000	          0.00000000	          0.00000000	          0.00000000	         -4.48156325	          0.00000000	
          0.94800000	          0.00000000	          0.00000000	          0.00000000	          0.00000000	          0.00000000	          0.00000000	         11.91365588	        509.08202869	         11.62618434	          0.03739053	         -0.04999800	         -0.09957249	          0.00000000	          0.00000000	          0.00000000	          0.00000000	         -4.30861860	          0.00000000	
          0.95200000	          0.00000000	          0.00000000	          0.00000000	          0.00000000	          0.00000000	          0.00000000	         14.22142600	        513.44740754	         13.02370455	          0.04058892	         -0.04999808	         -0.09908406	          0.00000000	          0.00000000	          0.00000000	          0.00000000	         -4.11367220	          0.00000000	
